<?xml version='1.0' encoding='utf-8'?>
<svg xmlns:xlink="http://www.w3.org/1999/xlink" xmlns="http://www.w3.org/2000/svg" id="svg1253" version="1.1" viewBox="0 0 507.99999 285.75001" height="1080" width="1920"> <defs id="defs1247"> <linearGradient y2="138.25" x2="1058.3334" y1="402.83334" x1="555.625" gradientTransform="translate(0,4349.8117)" gradientUnits="userSpaceOnUse" id="linearGradient1200" xlink:href="#linearGradient964"/> <linearGradient id="linearGradient964"> <stop id="stop960" offset="0" style="stop-color:#f2f2f2;stop-opacity:1;"/> <stop id="stop962" offset="1" style="stop-color:#f2f2f2;stop-opacity:1"/> </linearGradient> </defs> <metadata id="metadata1250"> </metadata> <g transform="translate(0,-11.249983)" id="layer1"> <g id="g1944" transform="translate(-582.08331,-4428.1286)"> <rect style="color:#000000;clip-rule:nonzero;display:inline;overflow:visible;visibility:visible;opacity:1;isolation:auto;mix-blend-mode:normal;color-interpolation:sRGB;color-interpolation-filters:linearRGB;solid-color:#000000;solid-opacity:1;fill:url(#linearGradient1200);fill-opacity:1;fill-rule:nonzero;stroke:none;stroke-width:0.079375;stroke-linecap:round;stroke-linejoin:round;stroke-miterlimit:4;stroke-dasharray:none;stroke-dashoffset:0;stroke-opacity:1;color-rendering:auto;image-rendering:auto;shape-rendering:auto;text-rendering:auto;enable-background:accumulate" id="rect1198" width="508" height="285.75" x="582.08331" y="4439.3784"/> <g id="g1934"> <path id="path1431" transform="scale(0.26458333)" d="m 3412.4238,17103.877 -510.5508,479.893 274.9844,274.984 H 4120 v -346.358 z" style="opacity:0.1;fill:#000000;fill-rule:evenodd;stroke:none;stroke-width:0.99999994px;stroke-linecap:butt;stroke-linejoin:miter;stroke-opacity:1"/> <g transform="translate(-785.81255,-160.40799)" id="g1425"> <rect rx="0" ry="11.024322" y="4683.7915" x="1550.4584" height="132.29166" width="142.87498" id="rect1417" style="color:#000000;clip-rule:nonzero;display:inline;overflow:visible;visibility:visible;opacity:1;isolation:auto;mix-blend-mode:normal;color-interpolation:sRGB;color-interpolation-filters:linearRGB;solid-color:#000000;solid-opacity:1;fill:#5499ff;fill-opacity:1;fill-rule:nonzero;stroke:none;stroke-width:1.40829682;stroke-linecap:round;stroke-linejoin:round;stroke-miterlimit:4;stroke-dasharray:none;stroke-dashoffset:0;stroke-opacity:1;color-rendering:auto;image-rendering:auto;shape-rendering:auto;text-rendering:auto;enable-background:accumulate"/> <path id="path1419" transform="scale(0.26458333)" d="m 5900,17822.52 v 100 h 100 v -100 z m 120,0 v 100 h 100 v -100 z m 120,0 v 100 h 100 v -100 z m 120,0 v 100 h 100 v -100 z m -360,120 v 100 h 100 v -100 z m 120,0 v 100 h 100 v -100 z m 120,0 v 100 h 100 v -100 z m 120,0 v 100 h 100 v -100 z m -360,120 v 100 h 100 v -100 z m 120,0 v 100 h 100 v -100 z m 120,0 v 100 h 100 v -100 z m 120,0 v 100 h 100 v -100 z" style="fill:#ffffff;fill-rule:evenodd;stroke:none;stroke-width:0.99999994px;stroke-linecap:butt;stroke-linejoin:miter;stroke-opacity:1"/> <path id="path1421" d="m 1582.2083,4704.9584 h 15.875 v -31.75 h -15.875 z" style="fill:#ffffff;fill-rule:evenodd;stroke:#5499ff;stroke-width:7.9375;stroke-linecap:butt;stroke-linejoin:round;stroke-miterlimit:4;stroke-dasharray:none;stroke-opacity:1"/> <path style="fill:#ffffff;fill-rule:evenodd;stroke:#5499ff;stroke-width:7.9375;stroke-linecap:butt;stroke-linejoin:round;stroke-miterlimit:4;stroke-dasharray:none;stroke-opacity:1" d="m 1645.7083,4704.9584 h 15.875 v -31.75 h -15.875 z" id="path1423"/> </g> </g> </g> </g> </svg>