<?xml version="1.0" encoding="UTF-8"?>
<!DOCTYPE svg  PUBLIC '-//W3C//DTD SVG 1.1//EN'  'http://www.w3.org/Graphics/SVG/1.1/DTD/svg11.dtd'>
<svg enable-background="new 0 0 612 792" version="1.1" viewBox="0 0 612 792" xmlns="http://www.w3.org/2000/svg">
 <path d="m457.56 305.55c-0.712-8.396-8.093-15.2-16.487-15.2h-180.24v-41.31h35.072c6.604 0 11.956-5.354 11.956-11.956v-23.892c0-6.602-5.353-11.956-11.956-11.956h-105.43c-6.604 0-11.956 5.354-11.956 11.956v23.892c0 6.602 5.353 11.956 11.956 11.956h35.07v41.31h-54.939c-8.394 0-15.774 6.804-16.488 15.2l-16.371 189.68h336.19l-16.37-189.68zm-12.77 128.33c0.452 2.839-1.586 5.142-4.555 5.142h-12.268c-2.968 0-5.679-2.303-6.053-5.142l-1.551-11.737c-0.374-2.839 1.664-5.139 4.557-5.139h11.948c2.891 0 5.603 2.3 6.053 5.139l1.86 11.74zm-129.27-104.5c0-8.755 8.582-15.856 19.168-15.856h87.46c10.585 0 19.168 7.102 19.168 15.856v29.82c0 8.761-8.583 15.859-19.168 15.859h-87.46c-10.587 0-19.168-7.098-19.168-15.859v-29.82zm99.11 109.64h-12.266c-2.969 0-5.61-2.303-5.899-5.142l-1.195-11.737c-0.289-2.839 1.821-5.139 4.712-5.139h11.948c2.891 0 5.532 2.3 5.898 5.139l1.516 11.737c0.37 2.83-1.74 5.14-4.71 5.14zm-115.09-16.88c0.039-2.839 2.414-5.139 5.305-5.139h11.948c2.893 0 5.268 2.3 5.305 5.139l0.16 11.737c0.039 2.839-2.336 5.142-5.305 5.142h-12.268c-2.968 0-5.343-2.303-5.304-5.142l0.15-11.74zm-0.33 24.3c0.038-2.838 2.483-5.142 5.458-5.142h12.3c2.978 0 5.421 2.303 5.46 5.142l0.158 11.734c0.04 2.842-2.404 5.145-5.458 5.145h-12.62c-3.052 0-5.496-2.303-5.458-5.145l0.16-11.74zm-122.47-129.52h112.94v30.337h-112.94v-30.34zm49.63 105.22l-1.196 11.737c-0.289 2.839-2.928 5.142-5.897 5.142h-12.268c-2.968 0-5.078-2.303-4.712-5.142l1.516-11.737c0.368-2.839 3.009-5.139 5.899-5.139h11.948c2.89 0 5 2.3 4.71 5.14zm-25.09 0l-1.55 11.737c-0.375 2.839-3.085 5.142-6.054 5.142h-12.268c-2.968 0-5.008-2.303-4.555-5.142l1.87-11.737c0.452-2.839 3.164-5.139 6.055-5.139h11.948c2.89 0 4.93 2.3 4.55 5.14zm-6.42 48.59l-1.55 11.733c-0.375 2.839-3.224 5.142-6.363 5.142h-12.972c-3.141 0-5.318-2.303-4.866-5.142l1.872-11.733c0.451-2.842 3.301-5.142 6.361-5.142h12.653c3.07 0 5.25 2.3 4.87 5.14zm-4.55-7.42h-12.621c-3.053 0-5.161-2.303-4.709-5.145l1.869-11.734c0.454-2.838 3.234-5.142 6.21-5.142h12.3c2.976 0 5.086 2.303 4.709 5.142l-1.55 11.734c-0.37 2.85-3.15 5.15-6.21 5.15zm29.91 19.15c-0.289 2.839-3.067 5.142-6.207 5.142h-12.972c-3.14 0-5.387-2.303-5.021-5.142l1.516-11.733c0.366-2.842 3.146-5.142 6.207-5.142h12.65c3.063 0 5.308 2.3 5.019 5.142l-1.2 11.73zm-3.58-19.15h-12.619c-3.053 0-5.231-2.303-4.866-5.145l1.516-11.734c0.366-2.838 3.077-5.142 6.053-5.142h12.301c2.977 0 5.154 2.303 4.865 5.142l-1.195 11.734c-0.27 2.85-2.98 5.15-6.04 5.15zm30.5 19.15c-0.203 2.839-2.913 5.142-6.052 5.142h-12.972c-3.139 0-5.457-2.303-5.176-5.142l1.16-11.733c0.281-2.842 2.991-5.142 6.053-5.142h12.652c3.063 0 5.378 2.3 5.176 5.142l-0.84 11.73zm1.74-24.29c-0.204 2.842-2.843 5.145-5.897 5.145h-12.621c-3.053 0-5.302-2.303-5.021-5.145l1.16-11.734c0.281-2.838 2.92-5.142 5.898-5.142h12.3c2.978 0 5.225 2.303 5.021 5.142l-0.84 11.72zm1.74-24.29c-0.203 2.839-2.775 5.142-5.743 5.142h-12.268c-2.968 0-5.146-2.303-4.867-5.142l1.16-11.737c0.281-2.839 2.852-5.139 5.745-5.139h11.947c2.891 0 5.07 2.3 4.866 5.139l-0.84 11.74zm45.39 48.58c-0.047 2.839-2.63 5.142-5.769 5.142h-12.972c-3.139 0-5.583-2.303-5.458-5.142l0.514-11.733c0.126-2.842 2.708-5.142 5.769-5.142h12.653c3.063 0 5.504 2.3 5.457 5.142l-0.19 11.73zm0.4-24.29c-0.047 2.842-2.561 5.145-5.615 5.145h-12.62c-3.054 0-5.429-2.303-5.305-5.145l0.514-11.734c0.126-2.838 2.64-5.142 5.617-5.142h12.299c2.978 0 5.351 2.303 5.303 5.142l-0.2 11.72zm0.41-24.29c-0.045 2.839-2.491 5.142-5.46 5.142h-12.266c-2.969 0-5.274-2.303-5.15-5.142l0.515-11.737c0.125-2.839 2.571-5.139 5.46-5.139h11.949c2.891 0 5.196 2.3 5.148 5.139l-0.2 11.74zm20.49 53.73h-12.974c-3.138 0-5.651-2.303-5.612-5.142l0.158-11.733c0.039-2.842 2.553-5.142 5.614-5.142h12.653c3.063 0 5.574 2.3 5.614 5.142l0.16 11.733c0.04 2.83-2.47 5.14-5.61 5.14zm7.32-65.47c-0.047-2.839 2.257-5.139 5.15-5.139h11.948c2.891 0 5.336 2.3 5.46 5.139l0.516 11.737c0.124 2.839-2.181 5.142-5.15 5.142h-12.268c-2.97 0-5.415-2.303-5.46-5.142l-0.2-11.74zm0.4 24.3c-0.048-2.838 2.327-5.142 5.303-5.142h12.3c2.978 0 5.491 2.303 5.615 5.142l0.515 11.734c0.126 2.842-2.249 5.145-5.303 5.145h-12.621c-3.053 0-5.568-2.303-5.615-5.145l-0.19-11.74zm19.35 41.17h-12.972c-3.139 0-5.723-2.303-5.771-5.142l-0.194-11.733c-0.047-2.842 2.396-5.142 5.457-5.142h12.653c3.062 0 5.645 2.3 5.771 5.142l0.514 11.733c0.12 2.83-2.33 5.14-5.46 5.14zm25.81-65.47c-0.202-2.839 1.977-5.139 4.868-5.139h11.94c2.891 0 5.464 2.3 5.743 5.139l1.161 11.737c0.279 2.839-1.899 5.142-4.867 5.142h-12.26c-2.969 0-5.54-2.303-5.743-5.142l-0.84-11.74zm1.73 24.3c-0.203-2.838 2.045-5.142 5.021-5.142h12.3c2.978 0 5.617 2.303 5.898 5.142l1.16 11.734c0.281 2.842-1.967 5.145-5.021 5.145h-12.619c-3.054 0-5.695-2.303-5.897-5.145l-0.84-11.74zm21.61 41.17h-12.972c-3.141 0-5.849-2.303-6.053-5.142l-0.839-11.733c-0.204-2.842 2.113-5.142 5.176-5.142h12.652c3.063 0 5.771 2.3 6.051 5.142l1.16 11.733c0.28 2.83-2.04 5.14-5.18 5.14zm4.22-41.17c-0.291-2.838 1.888-5.142 4.865-5.142h37.966c2.976 0 5.756 2.303 6.208 5.142l1.87 11.734c0.452 2.842-1.656 5.145-4.71 5.145h-38.951c-3.054 0-5.764-2.303-6.053-5.145l-1.21-11.74zm49.91 41.17h-40.041c-3.138 0-5.917-2.303-6.207-5.142l-1.196-11.733c-0.289-2.842 1.958-5.142 5.02-5.142h39.054c3.063 0 5.911 2.3 6.364 5.142l1.87 11.733c0.47 2.83-1.71 5.14-4.85 5.14z"/>
 <path d="m135.39 515.44v55.771h0.015c-0.735 8.396 5.965 15.2 14.969 15.2h310.93c9.003 0 15.704-6.804 14.969-15.2v-55.771h-340.88zm170.45 61.1c-8.322 0-15.069-6.746-15.069-15.069 0-8.324 6.747-15.072 15.069-15.072 8.323 0 15.07 6.749 15.07 15.072 0 8.33-6.75 15.07-15.07 15.07z"/>
</svg>
