<?xml version="1.0" encoding="UTF-8"?>
<svg viewBox="0 0 60 60" xmlns="http://www.w3.org/2000/svg">
 <defs>
  <linearGradient id="a" x1="-.10728" x2="1.7453" y1=".40619" y2=".42182">
   <stop stop-color="#fff" offset="0"/>
   <stop stop-color="#fff" stop-opacity="0" offset="1"/>
  </linearGradient>
 </defs>
 <path transform="matrix(1.362 0 0 1.3128 -11.003 -10.33)" d="m51.538 31.489a19.033 19.582 0 1 0 -38.066 0 19.033 19.582 0 1 0 38.066 0z" fill="#040000" fill-opacity=".3871" fill-rule="evenodd"/>
 <path transform="matrix(1.362 0 0 1.3128 -14.982 -11.823)" d="m51.538 31.489a19.033 19.582 0 1 0 -38.066 0 19.033 19.582 0 1 0 38.066 0z" fill="url(#a)" fill-rule="evenodd" stroke="#000" stroke-width="1.4841"/>
 <path transform="rotate(89.45)" d="m28.25381-10.32638h1.36655a.44765,.44765 0 0,1 .44765.44765v3.62013a.44765,.44765 0 0,1 -.44765.44765h-1.36655a.44765,.44765 0 0,1 -.44765-.44765v-3.62013a.44765,.44765 0 0,1 .44765-.44765" fill="#0a0608" fill-opacity=".75" fill-rule="evenodd" stroke="#000" stroke-width=".36129"/>
 <path transform="rotate(89.45)" d="m31.70015-10.32638h1.36655a.44765,.44765 0 0,1 .44765.44765v3.62013a.44765,.44765 0 0,1 -.44765.44765h-1.36655a.44765,.44765 0 0,1 -.44765-.44765v-3.62013a.44765,.44765 0 0,1 .44765-.44765" fill="#0a0608" fill-opacity=".75" fill-rule="evenodd" stroke="#000" stroke-width=".36129"/>
 <path d="m26.00609,8.74261h1.36655a.44765,.44765 0 0,1 .44765.44765v3.62013a.44765,.44765 0 0,1 -.44765.44765h-1.36655a.44765,.44765 0 0,1 -.44765-.44765v-3.62013a.44765,.44765 0 0,1 .44765-.44765" fill="#0a0608" fill-opacity=".75" fill-rule="evenodd" stroke="#000" stroke-width=".36129"/>
 <path d="m29.45244,8.74261h1.36655a.44765,.44765 0 0,1 .44765.44765v3.62013a.44765,.44765 0 0,1 -.44765.44765h-1.36655a.44765,.44765 0 0,1 -.44765-.44765v-3.62013a.44765,.44765 0 0,1 .44765-.44765" fill="#0a0608" fill-opacity=".75" fill-rule="evenodd" stroke="#000" stroke-width=".36129"/>
 <path d="m26.78935,46.96569h1.36655a.44765,.44765 0 0,1 .44765.44765v3.62013a.44765,.44765 0 0,1 -.44765.44765h-1.36655a.44765,.44765 0 0,1 -.44765-.44765v-3.62013a.44765,.44765 0 0,1 .44765-.44765" fill="#0a0608" fill-opacity=".75" fill-rule="evenodd" stroke="#000" stroke-width=".36129"/>
 <path d="m30.2357,46.96569h1.36655a.44765,.44765 0 0,1 .44765.44765v3.62013a.44765,.44765 0 0,1 -.44765.44765h-1.36655a.44765,.44765 0 0,1 -.44765-.44765v-3.62013a.44765,.44765 0 0,1 .44765-.44765" fill="#0a0608" fill-opacity=".75" fill-rule="evenodd" stroke="#000" stroke-width=".36129"/>
 <path transform="rotate(89.45)" d="m28.49654-52.15204h1.36655a.44765,.44765 0 0,1 .44765.44765v3.62013a.44765,.44765 0 0,1 -.44765.44765h-1.36655a.44765,.44765 0 0,1 -.44765-.44765v-3.62013a.44765,.44765 0 0,1 .44765-.44765" fill="#0a0608" fill-opacity=".75" fill-rule="evenodd" stroke="#000" stroke-width=".36129"/>
 <path transform="rotate(89.45)" d="m31.94288-52.15204h1.36655a.44765,.44765 0 0,1 .44765.44765v3.62013a.44765,.44765 0 0,1 -.44765.44765h-1.36655a.44765,.44765 0 0,1 -.44765-.44765v-3.62013a.44765,.44765 0 0,1 .44765-.44765" fill="#0a0608" fill-opacity=".75" fill-rule="evenodd" stroke="#000" stroke-width=".36129"/>
 <path d="m44.363 2.2659c-3.7424 3.9471-12.379 16.738-15.5 21.919-2.5256 4.7451-4.2561 7.5753-4.447 12.371 3.6678-2.3933 5.4231-4.4088 8.197-9.5738 2.8236-4.9634 10.268-19.451 11.75-24.717z" fill="#060000" fill-opacity=".75" fill-rule="evenodd" stroke="#000" stroke-width="1.1639"/>
 <path d="m48.607 25.363c-4.1547 0.1293-15.62 2.3258-20.05 3.4076-3.8655 1.1602-6.2993 1.7381-8.8548 4.113 3.3194 0.63364 5.3519 0.48833 9.5736-0.76189 4.1474-1.121 15.796-4.799 19.331-6.7588z" fill="#060000" fill-opacity=".75" fill-rule="evenodd" stroke="#000" stroke-width=".86684"/>
</svg>
