<?xml version="1.0" encoding="UTF-8" standalone="no"?>
<!-- Created with Inkscape (http://www.inkscape.org/) -->

<svg
   xmlns:dc="http://purl.org/dc/elements/1.1/"
   xmlns:cc="http://creativecommons.org/ns#"
   xmlns:rdf="http://www.w3.org/1999/02/22-rdf-syntax-ns#"
   xmlns:svg="http://www.w3.org/2000/svg"
   xmlns="http://www.w3.org/2000/svg"
   xmlns:sodipodi="http://sodipodi.sourceforge.net/DTD/sodipodi-0.dtd"
   xmlns:inkscape="http://www.inkscape.org/namespaces/inkscape"
   id="svg2"
   version="1.1"
   inkscape:version="0.91 r13725"
   width="1237.5"
   height="825"
   viewBox="0 0 1237.5 825"
   sodipodi:docname="icono.svg">
  <metadata
     id="metadata8">
    <rdf:RDF>
      <cc:Work
         rdf:about="">
        <dc:format>image/svg+xml</dc:format>
        <dc:type
           rdf:resource="http://purl.org/dc/dcmitype/StillImage" />
        <dc:title></dc:title>
      </cc:Work>
    </rdf:RDF>
  </metadata>
  <defs
     id="defs6">
    <inkscape:path-effect
       fuse_tolerance="0"
       vertical_pattern="false"
       prop_units="false"
       tang_offset="0"
       normal_offset="0"
       spacing="0"
       scale_y_rel="false"
       prop_scale="1"
       copytype="single_stretched"
       pattern="m -90.611135,5.0000001 c 0,-2.76 2.24,-5.000000013149168 5,-5.000000013149168 2.76,0 5,2.240000013149168 5,5.000000013149168 0,2.76 -2.24,4.9999999 -5,4.9999999 -2.76,0 -5,-2.2399999 -5,-4.9999999 z"
       is_visible="true"
       id="path-effect4304"
       effect="skeletal" />
    <inkscape:path-effect
       fuse_tolerance="0"
       vertical_pattern="false"
       prop_units="false"
       tang_offset="0"
       normal_offset="0"
       spacing="0"
       scale_y_rel="false"
       prop_scale="1"
       copytype="single_stretched"
       pattern="m -90.611135,5.0000001 c 0,-2.76 2.24,-5.000000013149168 5,-5.000000013149168 2.76,0 5,2.240000013149168 5,5.000000013149168 0,2.76 -2.24,4.9999999 -5,4.9999999 -2.76,0 -5,-2.2399999 -5,-4.9999999 z"
       is_visible="true"
       id="path-effect4301"
       effect="skeletal" />
    <inkscape:path-effect
       fuse_tolerance="0"
       vertical_pattern="false"
       prop_units="false"
       tang_offset="0"
       normal_offset="0"
       spacing="0"
       scale_y_rel="false"
       prop_scale="1"
       copytype="single_stretched"
       pattern="m -90.611135,5.0000001 c 0,-2.76 2.24,-5.000000013149168 5,-5.000000013149168 2.76,0 5,2.240000013149168 5,5.000000013149168 0,2.76 -2.24,4.9999999 -5,4.9999999 -2.76,0 -5,-2.2399999 -5,-4.9999999 z"
       is_visible="true"
       id="path-effect4298"
       effect="skeletal" />
    <inkscape:path-effect
       fuse_tolerance="0"
       vertical_pattern="false"
       prop_units="false"
       tang_offset="0"
       normal_offset="0"
       spacing="0"
       scale_y_rel="false"
       prop_scale="1"
       copytype="single_stretched"
       pattern="m -90.611135,5.0000001 c 0,-2.76 2.24,-5.000000013149168 5,-5.000000013149168 2.76,0 5,2.240000013149168 5,5.000000013149168 0,2.76 -2.24,4.9999999 -5,4.9999999 -2.76,0 -5,-2.2399999 -5,-4.9999999 z"
       is_visible="true"
       id="path-effect4295"
       effect="skeletal" />
    <inkscape:path-effect
       fuse_tolerance="0"
       vertical_pattern="false"
       prop_units="false"
       tang_offset="0"
       normal_offset="0"
       spacing="0"
       scale_y_rel="false"
       prop_scale="1"
       copytype="single_stretched"
       pattern="m -90.611135,5.0000001 c 0,-2.76 2.24,-5.000000013149168 5,-5.000000013149168 2.76,0 5,2.240000013149168 5,5.000000013149168 0,2.76 -2.24,4.9999999 -5,4.9999999 -2.76,0 -5,-2.2399999 -5,-4.9999999 z"
       is_visible="true"
       id="path-effect4292"
       effect="skeletal" />
    <inkscape:path-effect
       fuse_tolerance="0"
       vertical_pattern="false"
       prop_units="false"
       tang_offset="0"
       normal_offset="0"
       spacing="0"
       scale_y_rel="false"
       prop_scale="1"
       copytype="single_stretched"
       pattern="m -90.611135,5.0000001 c 0,-2.76 2.24,-5.000000013149168 5,-5.000000013149168 2.76,0 5,2.240000013149168 5,5.000000013149168 0,2.76 -2.24,4.9999999 -5,4.9999999 -2.76,0 -5,-2.2399999 -5,-4.9999999 z"
       is_visible="true"
       id="path-effect4289"
       effect="skeletal" />
    <inkscape:path-effect
       effect="skeletal"
       id="path-effect4176"
       is_visible="true"
       pattern="m -90.611135,5.0000001 c 0,-2.76 2.24,-5.000000013149168 5,-5.000000013149168 2.76,0 5,2.240000013149168 5,5.000000013149168 0,2.76 -2.24,4.9999999 -5,4.9999999 -2.76,0 -5,-2.2399999 -5,-4.9999999 z"
       copytype="single_stretched"
       prop_scale="1"
       scale_y_rel="false"
       spacing="0"
       normal_offset="0"
       tang_offset="0"
       prop_units="false"
       vertical_pattern="false"
       fuse_tolerance="0" />
    <inkscape:path-effect
       effect="skeletal"
       id="path-effect4172"
       is_visible="true"
       pattern="m -90.611135,5.0000001 c 0,-2.76 2.24,-5.000000013149168 5,-5.000000013149168 2.76,0 5,2.240000013149168 5,5.000000013149168 0,2.76 -2.24,4.9999999 -5,4.9999999 -2.76,0 -5,-2.2399999 -5,-4.9999999 z"
       copytype="single_stretched"
       prop_scale="1"
       scale_y_rel="false"
       spacing="0"
       normal_offset="0"
       tang_offset="0"
       prop_units="false"
       vertical_pattern="false"
       fuse_tolerance="0" />
    <inkscape:path-effect
       effect="skeletal"
       id="path-effect4160"
       is_visible="true"
       pattern="m -90.611135,5.0000001 c 0,-2.76 2.24,-5.000000013149168 5,-5.000000013149168 2.76,0 5,2.240000013149168 5,5.000000013149168 0,2.76 -2.24,4.9999999 -5,4.9999999 -2.76,0 -5,-2.2399999 -5,-4.9999999 z"
       copytype="single_stretched"
       prop_scale="1"
       scale_y_rel="false"
       spacing="0"
       normal_offset="0"
       tang_offset="0"
       prop_units="false"
       vertical_pattern="false"
       fuse_tolerance="0" />
    <inkscape:path-effect
       effect="skeletal"
       id="path-effect4148"
       is_visible="true"
       pattern="m -90.611135,5.0000001 c 0,-2.76 2.24,-5.000000013149168 5,-5.000000013149168 2.76,0 5,2.240000013149168 5,5.000000013149168 0,2.76 -2.24,4.9999999 -5,4.9999999 -2.76,0 -5,-2.2399999 -5,-4.9999999 z"
       copytype="single_stretched"
       prop_scale="1"
       scale_y_rel="false"
       spacing="0"
       normal_offset="0"
       tang_offset="0"
       prop_units="false"
       vertical_pattern="false"
       fuse_tolerance="0" />
    <inkscape:path-effect
       effect="skeletal"
       id="path-effect4144"
       is_visible="true"
       pattern="m -90.611135,5.0000001 c 0,-2.76 2.24,-5.000000013149168 5,-5.000000013149168 2.76,0 5,2.240000013149168 5,5.000000013149168 0,2.76 -2.24,4.9999999 -5,4.9999999 -2.76,0 -5,-2.2399999 -5,-4.9999999 z"
       copytype="single_stretched"
       prop_scale="1"
       scale_y_rel="false"
       spacing="0"
       normal_offset="0"
       tang_offset="0"
       prop_units="false"
       vertical_pattern="false"
       fuse_tolerance="0" />
    <inkscape:path-effect
       effect="skeletal"
       id="path-effect4140"
       is_visible="true"
       pattern="m -90.611135,5.0000001 c 0,-2.76 2.24,-5.000000013149168 5,-5.000000013149168 2.76,0 5,2.240000013149168 5,5.000000013149168 0,2.76 -2.24,4.9999999 -5,4.9999999 -2.76,0 -5,-2.2399999 -5,-4.9999999 z"
       copytype="single_stretched"
       prop_scale="1"
       scale_y_rel="false"
       spacing="0"
       normal_offset="0"
       tang_offset="0"
       prop_units="false"
       vertical_pattern="false"
       fuse_tolerance="0" />
  </defs>
  <sodipodi:namedview
     pagecolor="#ffffff"
     bordercolor="#666666"
     borderopacity="1"
     objecttolerance="10"
     gridtolerance="10"
     guidetolerance="10"
     inkscape:pageopacity="0"
     inkscape:pageshadow="2"
     inkscape:window-width="1366"
     inkscape:window-height="724"
     id="namedview4"
     showgrid="false"
     inkscape:zoom="0.38626601"
     inkscape:cx="225.78294"
     inkscape:cy="373.33154"
     inkscape:window-x="0"
     inkscape:window-y="24"
     inkscape:window-maximized="1"
     inkscape:current-layer="svg2" />
  <g
     id="g4311"
     transform="matrix(0.84657534,0,0,0.84657534,2081.0061,-164.71373)">
    <circle
       r="472.47232"
       cy="681.31665"
       cx="-1741.0282"
       id="path4284"
       style="opacity:1;fill:#0000ff;fill-opacity:1;stroke:#000000;stroke-width:18.54530716;stroke-miterlimit:4;stroke-dasharray:none;stroke-opacity:1" />
    <path
       style="fill:#ffffe0;fill-rule:evenodd;stroke:none;stroke-width:1px;stroke-linecap:butt;stroke-linejoin:miter;stroke-opacity:1"
       d="m -1618.1412,961.7996 c -2.5211,1.5436 -25.3939,-41.41189 -74.2871,-101.29273 0,0 0,-1e-5 0,-1e-5 -23.6338,-28.98524 -53.0686,-60.83859 -89.4716,-93.15563 -1.8469,-4.60284 -3.3085,-9.51004 -4.0991,-14.6392 -0.4869,-4.15914 -0.4205,-8.40873 0.2256,-12.61158 0,0 0,-4e-5 0,-4e-5 1.3654,-8.45332 4.723,-16.12668 8.5147,-23.28149 2.8516,-5.45855 11.1544,-20.10255 13.9251,-25.43489 5.8558,-11.18614 11.0339,-22.95531 15.1178,-35.20886 6.3268,-5.95363 13.1458,-11.4989 20.4146,-16.50728 3.3284,-2.29341 6.7284,-4.45849 10.1932,-6.4884 9.6382,-5.4392 19.7123,-9.75836 29.8127,-13.29119 33.5996,-11.69412 25.7195,-6.13888 57.4545,-17.35813 7.9617,-5.60542 15.2495,-11.4425 21.0846,-18.35509 7.3527,-8.14254 12.8398,-17.53922 16.0812,-27.2533 9.2717,-0.0393 18.1852,-1.18 25.5651,-5.08428 7.2544,-3.54564 12.5971,-10.67027 15.9068,-18.14414 5.2253,-6.6763 8.8123,-14.31962 10.6771,-22.06445 1.8183,-7.64158 2.0336,-15.67365 1.7271,-23.27376 -0.3376,-8.05633 -1.4144,-17.08236 -2.1094,-24.61923 -0.7628,-8.58516 -1.1589,-16.45079 -0.4994,-24.36278 -8.5544,-16.39946 -14.0858,-29.13317 -17.9947,-41.18883 0,0 0,-10e-6 0,-10e-6 -1.5744,-4.88111 -3.1551,-10.5514 -4.136,-14.01689 -2.8123,-9.93496 -4.5776,-15.21379 -4.0994,-15.40736 0.4274,-0.173 3.0825,4.76436 6.7782,14.52225 0.8471,2.23566 3.7133,10.07441 5.0944,13.60686 0,0 10e-5,10e-6 10e-5,10e-6 4.6705,12.02292 10.6046,24.35334 19.901,41.26713 -0.282,7.84397 0.4679,15.79374 1.5884,24.87247 0.9005,7.42489 2.2138,16.44717 2.7803,24.92735 0.5443,7.97146 0.467,16.66762 -1.3722,25.3851 -1.7895,8.59938 -5.5242,17.07131 -11.2023,24.5078 -3.4706,8.68835 -9.7942,17.04265 -19.121,21.80763 -7.9159,3.76229 -16.8483,4.25243 -25.4129,2.96715 -2.0315,10.03409 -6.4687,19.57976 -13.0027,27.66835 -6.9348,8.0132 -15.1534,14.66221 -23.8365,20.72954 -29.3429,10.65242 -28.8918,7.69379 -58.5532,18.24385 -9.6594,3.41909 -19.1948,7.51537 -28.1911,12.61482 -3.0995,1.68251 -6.1416,3.49293 -9.1204,5.42463 -6.5047,4.2183 -12.6105,8.95228 -18.2757,14.07864 -3.8439,12.12753 -8.8143,23.67844 -14.4989,34.57398 -3.4941,6.64877 -10.8593,19.33255 -14.0664,25.38916 -3.5647,6.83388 -6.6395,13.46442 -7.6738,20.24263 0,0 0,2e-5 0,2e-5 -0.5415,3.33529 -0.6226,6.73301 -0.2621,10.05636 0.1938,3.56214 1.0134,7.11874 2.1807,10.57591 35.9694,32.24493 64.8204,64.32643 87.7039,93.72081 0,0 0,2e-5 0,2e-5 47.8955,61.58959 68.4957,105.8957 68.5588,105.85708 z"
       id="path4268"
       inkscape:path-effect="#path-effect4304"
       inkscape:original-d="m -1618.1412,961.7996 c -45.7813,-74.77276 -91.343,-135.75598 -160.0107,-197.01314 -13.45,-35.96593 15.9778,-50.5747 34.0023,-106.00706 38.6693,-35.72854 77.3385,-38.14359 116.0077,-52.00347 16.4593,-11.54262 31.1013,-24.90251 37.0025,-47.00314 18.9984,1.3277 34.6379,-4.06241 43.0029,-24.0016 23.2442,-30.08616 7.0605,-64.55319 9.0006,-97.00647 -21.0133,-39.21929 -19.847,-47.3871 -29.0019,-70.00467"
       inkscape:connector-curvature="0"
       sodipodi:nodetypes="cccccccc" />
    <path
       style="fill:#ffffe0;fill-rule:evenodd;stroke:none;stroke-width:1px;stroke-linecap:butt;stroke-linejoin:miter;stroke-opacity:1"
       d="m -1862.1575,962.79967 c -0.5728,0.57292 -10.374,-7.93146 -26.8961,-23.72131 -15.3563,-14.67576 -40.9886,-39.94884 -66.127,-68.52472 -8.9525,-10.16997 -18.8177,-21.76654 -27.5004,-34.39824 -2.8627,-4.15788 -5.7066,-8.6155 -8.1437,-13.44144 -1.6631,-3.18467 -3.249,-6.87357 -3.9761,-11.11579 -3.4266,-16.94228 -5.6869,-35.30301 -4.8996,-54.135 0.5719,-13.63385 2.8804,-27.55978 7.3599,-41.10784 0.9125,-2.7467 1.9089,-5.46562 2.9805,-8.15918 3.3837,-8.50564 7.4562,-16.604 11.8148,-24.29258 5.7537,-9.83991 12.7423,-20.49759 18.273,-29.60356 18.1366,-8.14702 34.5886,-17.96178 49.1299,-28.96773 0,0 0,-2e-5 0,-2e-5 14.0433,-10.57421 26.2877,-22.37343 36.8155,-34.09177 21.4607,-23.76741 48.7281,-64.57175 58.0258,-77.47295 0,0 0,-1e-5 0,-1e-5 1.8168,-5.70049 5.8506,-12.81693 7.4745,-16.19831 2.7859,-5.9134 3.9776,-9.54467 4.6882,-13.01199 0.6282,-3.06506 0.626,-4.7622 0.9848,-4.78977 0.2534,-0.0195 0.8638,1.64428 0.7976,4.98351 -0.071,3.56311 -0.899,8.02852 -3.2443,14.18779 -1.3432,3.58539 -5.1346,11.80095 -6.4072,16.83327 0,0 0,10e-6 0,10e-6 -9.3723,14.81638 -33.0383,54.01663 -56.0652,80.95981 -10.556,12.29473 -22.9933,24.70856 -37.4636,35.93332 0,0 0,2e-5 0,2e-5 -14.3029,11.04585 -30.5467,20.74602 -48.519,28.59346 -4.891,8.70203 -11.0479,18.73349 -15.8126,27.53921 -4.1656,7.42455 -8.0357,15.12664 -11.2068,23.09328 -1.0045,2.52341 -1.9333,5.05939 -2.7778,7.61077 -4.1817,12.56856 -6.3734,25.59183 -6.9884,38.40379 -0.8579,17.82283 1.1935,35.52627 4.3096,52.07519 0.3436,2.72185 1.6121,5.59789 3.021,8.61382 2.0825,4.29644 4.6615,8.4468 7.3378,12.48837 8.1225,12.24479 17.5988,23.81074 26.2358,34.10325 23.4196,27.89059 49.7288,55.96487 63.2485,70.58069 15.4971,16.75353 24.1641,26.39901 23.5306,27.03265 z"
       id="path4270"
       inkscape:path-effect="#path-effect4301"
       inkscape:original-d="m -1862.1575,962.79967 c -72.4335,-72.42068 -124.6332,-130.05509 -128.0085,-152.01014 -16.02,-82.00472 11.538,-114.62097 34.0023,-153.0102 74.8694,-33.16341 106.6981,-89.28184 143.0095,-143.00954 2.8702,-10.01031 11.9718,-22.36439 11.0007,-35.00233"
       inkscape:connector-curvature="0"
       sodipodi:nodetypes="ccccc" />
    <path
       style="opacity:0.36600001;fill:#ffffe0;fill-opacity:1;fill-rule:evenodd;stroke:none;stroke-width:1px;stroke-linecap:butt;stroke-linejoin:miter;stroke-opacity:1"
       d="m -1642.1428,962.79967 c -1.2302,0.76827 -8.9948,-9.78929 -21.7279,-26.54207 -13.4825,-17.7386 -29.784,-38.69521 -51.5752,-63.86575 -21.7137,-25.0809 -41.1439,-45.40315 -56.1951,-61.14972 -5.5125,-6.46664 -9.6891,-11.67961 -13.0206,-16.26072 0,0 0,-10e-6 0,-10e-6 -4.815,-6.6271 -7.0487,-10.71798 -6.4911,-11.19367 0.6865,-0.58562 4.1261,2.54202 9.9312,8.22887 0,0 0,10e-6 0,10e-6 -0.2631,-0.25787 12.8342,12.62013 14.5599,14.32006 16.2002,14.21928 37.2203,34.5815 58.8962,59.62959 21.5583,24.91211 38.0925,47.90146 49.7238,66.28666 11.3569,17.95141 17.0079,29.85413 15.8988,30.54675 z"
       id="path4272"
       inkscape:path-effect="#path-effect4298"
       inkscape:original-d="m -1642.1428,962.79967 c -36.5648,-58.55087 -79.7918,-108.77411 -127.0085,-154.01027 -13.2448,-14.24488 -16.1954,-18.19561 -22.0014,-25.00167 l 0,0"
       inkscape:connector-curvature="0"
       sodipodi:nodetypes="cccc" />
    <path
       style="opacity:0.33900003;fill:#ffffe0;fill-opacity:1;fill-rule:evenodd;stroke:none;stroke-width:1px;stroke-linecap:butt;stroke-linejoin:miter;stroke-opacity:1"
       d="m -1785.1523,700.78219 c -0.7536,-0.37361 2.5046,-10.79354 12.1146,-26.89635 9.3909,-15.73573 25.7133,-37.93941 50.9295,-56.27703 16.634,-4.69671 35.6259,-10.18084 53.889,-16.85328 6.5383,-2.38878 12.873,-4.88615 19.0339,-7.53748 9.0107,-3.88145 17.2378,-7.89856 24.6862,-12.79548 5.9047,-3.80233 10.9788,-7.70696 14.3716,-12.59929 0.2747,-0.7039 0.2889,-1.81653 0.3548,-3.1689 0.1099,-1.73058 0.3572,-3.72388 1.0441,-5.88641 1.0555,-2.94441 2.7009,-5.32591 4.4743,-7.19544 3.7019,-3.45894 7.7632,-6.11529 11.4604,-8.31126 4.6932,1.01727 9.4558,0.8182 13.6118,-0.29303 4.2714,-1.14191 8.2563,-3.55069 11.6004,-5.92112 6.3952,-4.55506 14.6904,-12.66957 17.4622,-15.17786 4.111,-3.72026 6.5691,-5.49992 6.9833,-5.09934 0.3936,0.38066 -1.2674,2.90333 -4.6083,7.2832 -2.7507,3.60592 -8.9189,11.54396 -16.1304,17.71778 -3.4255,2.94236 -7.8249,6.01629 -13.1936,7.91043 -4.3676,1.5724 -9.402,1.95245 -14.4166,0.60124 -2.4599,2.08803 -4.8741,4.29529 -6.5131,6.84719 -1.1673,1.44098 -2.1614,2.89067 -2.5208,4.30358 -0.317,0.9294 -0.3644,2.19936 -0.4672,3.78463 -0.1408,1.86937 -0.4193,4.07742 -1.1671,6.50567 -4.4389,6.69771 -10.4488,12.01802 -17.046,16.60073 -8.0339,5.48717 -16.7501,9.93013 -26.0367,13.99136 -6.2033,2.7159 -12.5749,5.24553 -19.1335,7.6283 -18.4139,6.68993 -37.1756,11.7935 -53.8183,16.00102 -23.6842,16.40425 -40.0688,36.87145 -50.2847,51.20835 -10.4754,14.701 -15.5269,24.20037 -16.6798,23.62879 z"
       id="path4274"
       inkscape:path-effect="#path-effect4295"
       inkscape:original-d="m -1785.1523,700.78219 c 14.7674,-29.78543 34.2968,-57.18988 65.0043,-79.00526 56.2501,-15.05355 100.247,-31.63874 114.0076,-52.00347 2.2391,-6.85788 -2.8618,-11.26909 14.0009,-23.00154 20.0581,4.89383 34.0373,-14.52759 49.0033,-30.002 l 0,0"
       inkscape:connector-curvature="0"
       sodipodi:nodetypes="cccccc" />
    <path
       style="fill:#ffffe0;fill-rule:evenodd;stroke:none;stroke-width:1px;stroke-linecap:butt;stroke-linejoin:miter;stroke-opacity:1"
       d="m -1851.1567,566.77326 c 0.3738,0.61915 -5.4624,5.1178 -16.7785,11.8617 -25.2573,15.05233 -14.1805,7.20315 -48.2153,26.67788 0,0 0,10e-6 0,10e-6 -10.1859,5.83194 -21.6331,12.8169 -32.551,20.99985 -9.9377,7.44166 -19.9282,16.23058 -28.8244,26.54177 -8.7533,10.99659 -17.2929,23.49207 -21.3605,37.36493 -2.297,7.08889 -3.507,14.66842 -3.3021,22.10538 0.1436,5.21557 0.981,10.26433 2.5561,14.95159 -3.8238,1.49062 -7.7793,2.18346 -11.5316,1.98012 -1.194,-1.66287 -1.6931,-3.42364 -1.8245,-4.69789 -0.262,5.2489 0.1208,10.55844 1.2362,15.79421 -0.1872,9.11755 1.1497,18.26749 2.9679,26.97535 0,0 0,3e-5 0,3e-5 -0.5407,2.27645 -2.4723,5.02429 -6.0978,7.11947 0,0 0,-1e-5 0,-1e-5 -3.4051,0.46605 -5.8849,-0.34465 -7.1628,-1.7361 -1.7119,-1.42676 -2.9011,-2.89244 -3.782,-4.12607 -1.3175,-1.92662 -2.265,-3.45738 -3.3925,-5.09022 -2.1838,-17.11054 -4.1459,-32.98927 -5.8621,-47.46266 0.013,-0.45243 -0.9112,-13.72555 -0.8894,-15.02277 0.4998,-7.6641 4.0257,-14.42642 7.5796,-19.67611 -1.6174,-0.47802 -3.0338,-1.37106 -4.0687,-2.62469 -1.0987,-1.79505 -1.7177,-3.74126 -1.9262,-5.65149 -0.4195,-4.60068 0.9476,-8.69458 2.3592,-11.7959 2.0779,-4.73394 4.8474,-9.00005 6.8553,-11.97836 0,0 0,-10e-6 0,-10e-6 5.2453,-7.80076 8.5925,-11.74492 9.0041,-11.50527 0.6699,0.38998 -1.6766,4.9938 -5.9445,13.31221 0,0 0,1e-5 0,1e-5 -1.5919,3.10991 -3.9136,7.59019 -5.3983,11.94082 -0.9559,2.94086 -1.9063,6.36266 -1.2936,9.25637 0.2122,1.13944 0.6486,2.26238 1.3182,3.18437 0.8628,1.66334 2.0956,3.22814 3.5405,4.75622 -2.6556,6.0172 -5.1686,13.39261 -4.7396,20.81529 0.1266,11.04067 1.2002,1.85528 1.4292,14.49049 1.9575,13.69229 4.0088,28.58212 6.1387,44.54348 0.9445,1.01121 1.8667,2.11663 2.6078,2.89798 0.9118,1.1046 1.5901,2.01128 2.2184,2.42703 0.425,-0.056 0.1428,0.17826 -1.1624,0.0465 0,-10e-6 0,-10e-6 0,-10e-6 -0.7741,1.28362 -0.9411,1.17763 -0.097,0.79626 0,0 0,0 0,0 -2.215,-8.10147 -3.8969,-16.8659 -3.9747,-25.951 1.1893,-7.09468 3.2801,-14.24534 6.1786,-21.28546 3.2466,0.63928 5.9224,1.23284 8.2912,1.18749 0.5459,1.74707 1.438,3.07152 2.3543,4.09528 -2.5239,-4.79777 -4.1828,-9.90582 -5.0088,-15.12917 -1.178,-7.44899 -0.6311,-14.92736 1.2983,-21.82178 4.9105,-15.83046 14.1999,-29.33941 23.6068,-40.63728 9.6672,-10.86633 20.3653,-19.93701 30.9481,-27.45975 11.5975,-8.2359 23.5119,-15.00045 34.1103,-20.51641 0,0 0,0 0,0 14.3369,-7.46688 44.5424,-21.28712 49.8464,-23.78493 11.7964,-5.55522 18.3454,-8.8281 18.7434,-8.16877 z"
       id="path4276"
       inkscape:path-effect="#path-effect4292"
       inkscape:original-d="m -1851.1567,566.77326 c -41.185,24.86402 -93.5903,41.45852 -130.0087,83.00553 -21.6297,26.55413 -31.3262,52.11381 -21.0014,76.00507 -5.9182,0.58453 -8.5961,-2.07132 -12.0008,-4.00027 -2.7879,10.83936 -4.1354,23.5992 1.0001,45.00301 -4.0003,7.65864 -8.0006,0.0623 -12.0008,-5.00034 l -6.0004,-46.00306 c 0.025,-10.43632 -4.7833,-17.24726 5.0003,-35.00234 -13.3836,-8.76188 0.449,-26.59589 10.0007,-43.00286"
       inkscape:connector-curvature="0"
       sodipodi:nodetypes="ccccccccc" />
    <path
       style="fill:#ffffe0;fill-rule:evenodd;stroke:none;stroke-width:1px;stroke-linecap:butt;stroke-linejoin:miter;stroke-opacity:1"
       d="m -1602.1401,354.75912 c -0.358,-0.26646 -3.977,9.51696 -18.4528,21.92207 -4.5908,3.92936 -10.4696,7.99843 -17.6481,11.25861 -5.2409,2.37378 -10.5454,4.08977 -16.7003,6.01515 -5.1976,1.63632 -11.0375,3.50441 -16.3895,6.00226 -24.5878,7.61471 -52.2084,20.16875 -81.6304,40.29412 -23.2802,15.92815 -40.6238,31.01402 -66.6144,51.35974 -5.5928,6.0139 -11.2702,12.28158 -16.5647,18.8148 -3.0809,3.7892 -6.0575,7.70389 -8.7177,11.79379 -1.8294,2.80355 -3.5206,5.76674 -5.3411,8.85517 0,10e-6 0,4e-5 0,4e-5 -2.2902,3.64764 -4.7457,7.28222 -7.4188,10.83014 -38.008,17.27222 -77.4528,39.29459 -115.6274,67.18296 -29.1285,21.21693 -54.4892,43.48771 -84.4835,68.12655 -2.2962,2.81103 -4.927,5.11853 -7.6179,7.08599 -2.5545,1.92196 -5.0055,3.56984 -6.9798,5.32579 0,0 0,3e-5 0,3e-5 -2.2937,2.01138 -4.2771,4.40457 -5.8365,7.0475 -2.5857,4.31537 -4.3819,9.29083 -5.9148,14.53059 0,0 0,6e-5 0,6e-5 -11.1146,10.78067 -21.7312,22.34486 -30.809,35.03937 -6.4364,8.94651 -12.0578,18.5539 -16.4101,28.73349 -3.4482,8.03406 -6.1009,16.50073 -8.3736,25.20575 -0.077,0.29606 -0.1542,0.59229 -0.2305,0.88866 -2.9172,9.313 -5.3659,18.34009 -8.4542,27.83782 0,0 0,10e-6 0,10e-6 -2.0144,0.37304 -4.0267,0.74562 -6.0368,1.11777 -0.3911,3.14874 -1.1701,7.24547 -4.0674,10.99621 -1.2294,1.77893 -3.734,3.09001 -7.2802,3.23512 -4.0164,-1.15009 -6.5814,-3.29369 -7.7701,-5.35263 -4.606,-22.58607 -6.026,-45.64929 -2.541,-68.02138 3.0647,-18.13315 9.5369,-35.29305 17.9826,-50.87981 8.1315,-14.9991 17.9938,-28.88529 27.3357,-42.08428 10.0327,-14.14283 19.5116,-27.64332 27.1663,-42.10197 0,0 1e-4,-4e-5 1e-4,-4e-5 2.6184,-1.99678 5.6063,-4.14902 9.2596,-5.79077 3.1937,-1.22017 6.6818,-1.14613 9.8876,0.0985 55.0708,-69.47872 120.8196,-120.72048 174.7555,-156.46689 1.9325,-4.46803 4.1221,-8.80419 6.911,-12.83296 5.2297,-7.39629 11.5212,-13.73203 17.5177,-19.33084 7.6941,-6.5219 17.5149,-9.35263 25.4828,-11.88917 12.5151,-16.90389 28.6371,-31.63762 40.0328,-41.95165 0,0 0,-2e-5 0,-2e-5 31.5784,-28.54746 50.5302,-42.93713 50.5677,-42.89632 0.2515,0.27392 -3.8605,4.56921 -12,12.34914 22.9772,-21.96206 -51.4563,48.73344 -35.71,33.61468 0,0 0,2e-5 0,2e-5 -11.2475,10.77924 -27.4453,26.23828 -39.7013,43.19979 -8.3527,3.11835 -17.9896,6.1501 -24.5206,12.11246 -5.7383,5.58433 -11.6266,11.6881 -16.2601,18.53698 -2.7936,4.03395 -5.1062,8.51216 -7.3144,13.30345 -54.0579,36.79014 -120.884,89.37802 -177.2679,159.55419 -3.0183,-0.27352 -6.2345,0.0915 -9.0656,1.19487 -1.7901,0.45741 -3.6146,1.7159 -5.7893,3.11346 0,0 0,2e-5 0,2e-5 -7.4987,14.6505 -16.6638,28.03179 -26.1693,41.65872 -9.276,13.26283 -18.8913,26.8778 -26.5688,41.21574 -7.9495,14.83802 -14.0238,31.01139 -16.8043,47.89643 -3.6147,20.16292 -2.5416,41.25893 1.4768,62.16807 0.852,0.30212 0.7949,0.53901 -0.1047,-0.36327 -1.116,0.33832 -1.3627,0.13195 -0.9717,0.0844 2.4472,-2.26845 3.8476,-6.30488 5.9603,-10.84376 1.9859,-0.29386 3.9738,-0.58797 5.9639,-0.88235 0,0 1e-4,-1e-5 1e-4,-1e-5 1.6468,-7.93601 2.7931,-15.75173 4.4119,-24.08865 0.079,-0.30694 0.1578,-0.61391 0.2376,-0.9209 2.3463,-9.02611 5.1643,-17.96591 8.8664,-26.62016 4.6946,-10.93514 10.6842,-21.17152 17.5131,-30.62491 9.1271,-12.55692 19.7037,-23.78439 30.702,-34.05589 0,0 0,-5e-5 0,-5e-5 1.1637,-4.96978 2.8683,-10.01055 5.629,-14.71225 2.1042,-3.5359 4.7557,-6.71721 7.8377,-9.41408 0,0 10e-5,-3e-5 10e-5,-3e-5 2.6199,-2.26784 5.2709,-4.06686 7.5861,-5.78463 2.5169,-1.92489 4.8075,-3.90248 6.6017,-6.10366 30.124,-24.64886 56.0503,-47.22383 85.8976,-68.79693 38.2658,-27.57299 77.8342,-49.14441 116.0183,-65.91158 1.9527,-2.81118 3.7413,-5.76189 5.4178,-8.77753 0,0 0,-4e-5 0,-4e-5 1.8116,-3.01268 3.6,-6.06691 5.6258,-9.11629 2.9225,-4.38594 6.1078,-8.49574 9.3486,-12.38982 5.706,-6.83664 11.7159,-13.30338 17.5705,-19.42904 26.1027,-19.98893 44.2432,-35.2824 68.1131,-51.10822 30.0991,-19.95802 58.497,-32.15975 83.6621,-39.25007 5.6813,-2.46625 11.6249,-4.1878 16.8203,-5.64019 6.21,-1.74932 11.3723,-3.22232 16.4536,-5.31982 6.9322,-2.85262 12.7243,-6.51661 17.3264,-10.08909 14.6508,-11.36071 19.0908,-20.59767 20.2184,-19.75854 z"
       id="path4278"
       inkscape:path-effect="#path-effect4289"
       inkscape:original-d="m -1602.1401,354.75912 c -27.4301,36.85809 -47.4292,32.84536 -70.0047,43.00287 -64.8822,19.17623 -105.5045,56.54732 -150.01,91.00607 -30.1063,31.92669 -26.8283,34.64214 -38.0025,50.00333 -96.5931,43.15372 -145.2633,89.30261 -201.0134,135.00901 -9.089,11.13734 -20.2912,9.59539 -27.0018,35.00233 -52.7306,50.20111 -53.5136,82.06784 -63.0042,117.0078 l -6.0004,1.00007 c -3.0138,9.25271 -6.3561,16.53369 -12.0008,10.00066 -19.9882,-100.80557 38.0121,-138.47762 69.0046,-198.0132 4.8006,-3.39962 9.5978,-6.80599 17.0011,-5.00033 47.5711,-59.60734 107.1132,-111.73282 176.0117,-158.01054 3.5859,-8.0186 7.3808,-16.16258 24.0016,-32.00213 6.5688,-5.76537 15.8414,-8.82699 25.0017,-12.0008 19.7642,-27.02104 56.8793,-57.51228 89.0059,-87.00581 l 0,0"
       inkscape:connector-curvature="0"
       sodipodi:nodetypes="cccccccccccccccc" />
    <text
       xml:space="preserve"
       style="font-style:normal;font-variant:normal;font-weight:normal;font-stretch:normal;font-size:252.02282715px;line-height:125%;font-family:'Give You Glory';-inkscape-font-specification:'Give You Glory';letter-spacing:0.01400127px;word-spacing:0px;fill:#000000;fill-opacity:1;stroke:none;stroke-width:1px;stroke-linecap:butt;stroke-linejoin:miter;stroke-opacity:1"
       x="-1602.0155"
       y="895.42279"
       id="text4280"
       sodipodi:linespacing="125%"
       transform="scale(1.0879172,0.91918761)"><tspan
         sodipodi:role="line"
         id="tspan4282"
         x="-1602.0155"
         y="895.42279">Fisio</tspan></text>
  </g>
</svg>
